<?xml version="1.0" encoding="utf-8"?>
<!-- Generator: Adobe Illustrator 26.0.3, SVG Export Plug-In . SVG Version: 6.00 Build 0)  -->
<svg version="1.0" id="Layer_1" xmlns="http://www.w3.org/2000/svg" xmlns:xlink="http://www.w3.org/1999/xlink" x="0px" y="0px"
	 viewBox="0 0 863.3 614.2" style="enable-background:new 0 0 863.3 614.2;" xml:space="preserve">
<style type="text/css">
	.st0{fill:#0F385F;}
	.st1{fill:#FEFEFE;}
	.st2{fill:#FECC00;}
	.st3{fill:#B2B3B3;}
</style>
<path class="st0" d="M765.1,381.1L750,351.4c-0.6-1.3-1.5-2.4-2.7-3.2c-1.3-0.6-2.8-0.9-4.3-0.9l0.1-3h21.6v3h-0.8
	c-1.5-0.1-3,0.1-4.4,0.5c-0.9,0.4-1.4,0.9-1.4,1.6c0,0.4,0.1,0.8,0.3,1.1c0.3,0.7,0.7,1.5,1.1,2.2l12.2,23.4l10.8-21.4
	c0.3-0.6,0.6-1.3,0.8-1.9c0.2-0.6,0.2-1.1,0.2-1.7c0.1-1.2-0.6-2.3-1.6-2.9c-1.6-0.7-3.3-1.1-5-1l0.1-3H795v3
	c-3.2,0.4-5.7,2.4-7.6,6l-0.4,0.8L773.4,380v16.3c0,3,0.5,4.9,1.3,5.9s2.7,1.4,5.5,1.4h1.6v3h-25v-3h1.6c2.7,0,4.4-0.5,5.3-1.3
	s1.3-2.9,1.3-6L765.1,381.1z M737.2,344.2l5.1,15l-2.7,1c-4.4-5.6-7.8-9.2-10.1-10.8c-2.3-1.6-5-2.4-7.8-2.4c-1-0.1-1.9,0.1-2.7,0.7
	c-0.6,0.7-0.9,1.6-0.8,2.5V396c0,3.1,0.5,5.1,1.3,6.1s2.7,1.4,5.5,1.4h1.6v3h-25v-3h1.6c2.7,0,4.5-0.5,5.4-1.4s1.3-3,1.3-6.1v-45.9
	c0.1-0.9-0.2-1.8-0.8-2.5c-0.8-0.5-1.8-0.8-2.7-0.7c-2.8,0-5.5,0.8-7.8,2.4c-2.4,1.6-5.8,5.2-10.1,10.8l-2.7-1l5.1-15L737.2,344.2z
	 M682.9,344.2v3.1h-1.7c-2.8,0-4.6,0.5-5.4,1.4s-1.3,3.1-1.3,6.4v40.4c0,3.4,0.5,5.6,1.4,6.6s2.7,1.5,5.5,1.5h1.5v3h-25v-3h1.1
	c2.9,0,4.8-0.4,5.7-1.3c0.9-0.9,1.4-3,1.4-6.4v-40.8c0-3.5-0.4-5.7-1.3-6.5c-0.9-0.8-2.8-1.2-5.6-1.2H658v-3.1L682.9,344.2z
	 M615.5,407.8l-6.2-16.7l2.9-1.1c3,4.2,6.7,7.8,11,10.8c3.3,2.3,7.1,3.7,11.1,3.8c3.2,0.1,6.3-1.2,8.5-3.5c2.3-2.3,3.5-5.4,3.4-8.6
	c0.2-3.1-1-6.1-3.2-8.3c-2.1-2-6.5-4-13-6l-1.8-0.5c-5.2-1.4-9-3.3-11.4-5.6c-1.7-1.6-3-3.6-3.9-5.7c-0.9-2.1-1.3-4.4-1.3-6.8
	c-0.2-9,6.9-16.5,15.9-16.7c0.3,0,0.5,0,0.8,0c2.1,0,4.2,0.4,6.2,1c1.3,0.5,2.7,0.8,4.1,1c0.9,0,1.8-0.2,2.7-0.5
	c1.1-0.4,2.3-0.8,3.3-1.3l5.9,15.8l-2.5,1.4c-2.7-4.2-6.1-7.9-10-11c-2.7-2.2-6.1-3.5-9.6-3.6c-2.9-0.1-5.7,1.1-7.6,3.1
	c-3.1,3.5-3.8,8.4-2,12.7c0.7,1.5,1.8,2.8,3.1,3.9c1.9,1.6,5.8,3.1,11.6,4.7l3.2,1c5.3,1.5,9.2,3.8,11.8,6.8
	c2.7,3.3,4.1,7.4,3.9,11.7c0.1,4.9-1.7,9.6-5,13.1c-3.1,3.5-7.6,5.4-12.2,5.4c-2.9,0-5.8-0.5-8.6-1.5c-2.9-1-4.5-1.5-4.6-1.5
	c-0.9,0.1-1.7,0.3-2.5,0.7C618.1,406.3,616.8,407.1,615.5,407.8 M569.2,373.1h7c5.5,0,9.4-1,11.9-3s3.7-5.2,3.7-9.6
	c0-4.6-1.1-8-3.4-10.1c-2.3-2.2-5.9-3.2-10.8-3.3c-3.5,0-5.7,0.5-6.8,1.4s-1.6,2.9-1.6,6L569.2,373.1z M592.3,406.6l-16.7-30.3h-6.4
	v20c0,3,0.4,5,1.3,5.9s2.7,1.4,5.4,1.4h1.5v3h-24.9v-3h1.5c2.8,0,4.6-0.5,5.5-1.4s1.3-3.2,1.3-6.7v-40.9c0-3.1-0.4-5.1-1.3-6
	c-0.9-0.9-2.8-1.3-5.7-1.3h-1.3v-3.1h24.8c7.8,0,13.6,1.4,17.6,4.2c4,2.8,6,6.9,6,12.4c0.2,3.7-1.4,7.3-4.2,9.8
	c-2.8,2.5-7,4.2-12.8,5.1l11.5,20.1c1.8,3.2,3.5,5.3,5,6.2c1.8,1.1,3.9,1.6,6,1.5h0.6v3L592.3,406.6z M494.6,406.6v-3h1.5
	c2.8,0,4.6-0.5,5.5-1.4s1.3-3.1,1.3-6.5V355c0-3.5-0.4-5.6-1.3-6.5s-2.8-1.2-5.8-1.2h-1.2v-3.1h43.6l6.2,14.7l-2.4,0.9
	c-3.8-4.9-7.3-8.3-10.4-10.1c-3.5-1.9-7.4-2.9-11.4-2.7c-3.6,0-6,0.5-7.1,1.4c-1.2,0.9-1.7,2.9-1.7,5.8v18.4h4.3
	c4,0,6.9-0.8,8.9-2.4s3.2-4.2,3.7-7.9h3v24.1h-3c-0.5-3.8-1.7-6.5-3.6-8.2s-4.9-2.5-9-2.5h-4.3v21.4c0,2.4,0.5,4,1.6,4.9
	c1,0.9,2.9,1.3,5.6,1.3c5,0.1,9.9-1.1,14.3-3.4c4.5-2.6,8.4-6.2,11.3-10.5l2.5,0.9l-6,16.3L494.6,406.6z M461.6,408.8L443.8,357
	l-0.2-0.5c-2-5.8-5.2-8.9-9.3-9.3v-3h23.1v3c-1.9,0-3.8,0.3-5.6,0.9c-0.9,0.3-1.6,1.2-1.6,2.2c0,0.5,0.1,1.1,0.3,1.6
	c0.2,0.9,0.5,1.7,0.8,2.6l13.8,39.6l12.9-38.4c0.2-0.7,0.4-1.4,0.5-2.1c0.1-0.6,0.2-1.2,0.2-1.8c0.1-1.3-0.5-2.6-1.5-3.4
	c-1.6-0.9-3.4-1.3-5.2-1.3v-3h18.8v3c-1.8,0-3.5,0.7-4.8,1.8c-1.1,1-2.1,2.8-3,5.4L464,408.7L461.6,408.8z M431.7,344.2v3.1h-1.6
	c-2.8,0-4.6,0.5-5.4,1.4s-1.3,3.1-1.3,6.4v40.4c0,3.4,0.5,5.6,1.4,6.6s2.7,1.5,5.5,1.5h1.5v3h-24.9v-3h1c2.9,0,4.8-0.5,5.7-1.3
	s1.4-3,1.4-6.4v-40.8c0-3.5-0.4-5.7-1.3-6.5s-2.8-1.2-5.6-1.2h-1.2v-3.1L431.7,344.2z M357.4,344.2l34.1,48.5v-34
	c0-4-0.7-6.9-2.1-8.5s-3.7-2.5-7-2.6v-3.4h21.9v3.4c-3.3,0.1-5.6,0.9-7,2.6c-1.4,1.6-2.1,4.5-2.1,8.5V408h-3l-37-53.1v37.2
	c0,4,0.7,6.9,2,8.5s3.7,2.5,7,2.6v3.4h-21.9l0-3.4c3.3-0.1,5.6-0.9,7-2.6s2-4.5,2-8.5V351c-1-1.1-2.3-2-3.7-2.6
	c-1.7-0.6-3.5-1-5.3-1.1l0-3.1H357.4z M320.6,347.6v-3.3h20.2v3.3c-3,0.2-5.1,1.1-6.3,2.7c-1.2,1.6-1.9,4.4-1.9,8.3v24.7
	c0,8.4-1.8,14.6-5.3,18.6c-3.5,4-9,6-16.4,6c-7.3,0-12.8-1.9-16.5-5.6c-3.7-3.7-5.6-9.3-5.6-16.7v-30.9c0-3-0.4-5.1-1.4-6
	s-2.7-1.5-5.5-1.5h-1.5v-3h25v3h-1.5c-2.8,0-4.5,0.5-5.4,1.4s-1.3,3-1.3,6.3v32.1c0,5.7,1.3,10,3.8,12.9s6.4,4.2,11.6,4.2
	c5.4,0,9.4-1.6,12-4.8s4-8.1,4-14.7v-26c0-3.9-0.6-6.7-1.8-8.4C325.8,348.7,323.7,347.8,320.6,347.6"/>
<path class="st0" d="M741.1,278l-28.5-56.1c-1.6-3-3.3-5-5-6.1s-4.5-1.6-8.1-1.7l0.2-5.8h40.6v5.8h-1.4c-3.8,0-6.6,0.3-8.3,1
	s-2.6,1.7-2.6,3c0,0.7,0.2,1.5,0.5,2.1c0.6,1.4,1.2,2.8,2,4.1l23.1,44.1l20.3-40.4c0.6-1.2,1.1-2.4,1.5-3.6c0.3-1,0.4-2.1,0.5-3.2
	c0.1-2.2-1.1-4.3-3-5.4c-2-1.2-5.2-1.8-9.4-1.8l0.2-5.8h34.1v5.8c-6,0.7-10.7,4.5-14.3,11.3c-0.3,0.7-0.6,1.2-0.7,1.5L757,275.8
	v30.7c0,5.6,0.8,9.3,2.5,11.1s5.1,2.7,10.3,2.7h3v5.8h-47.1v-5.8h3c5,0,8.3-0.8,10-2.5s2.4-5.5,2.4-11.4L741.1,278z M688.5,208.3
	l9.7,28.3l-5.1,1.9c-8.2-10.5-14.6-17.3-19.1-20.4c-4.3-3-9.5-4.6-14.8-4.6c-2.5,0-4.2,0.4-5.1,1.3c-1,0.8-1.4,2.5-1.4,4.8v86.4
	c0,5.9,0.8,9.7,2.5,11.5s5.1,2.7,10.3,2.7h3v5.7h-47.2v-5.7h3c5.1,0,8.5-0.9,10.2-2.6c1.7-1.7,2.5-5.6,2.5-11.5v-86.6
	c0-2.3-0.5-4-1.5-4.8s-2.6-1.3-5.1-1.3c-5.3,0-10.5,1.6-14.8,4.6c-4.5,3.1-10.9,9.9-19.1,20.4l-5.1-1.9l9.7-28.3L688.5,208.3z
	 M586.2,208.3v5.9h-3.1c-5.2,0-8.7,0.9-10.2,2.6c-1.6,1.7-2.4,5.8-2.4,12.1v76.2c0,6.5,0.9,10.6,2.6,12.4c1.7,1.8,5.2,2.8,10.4,2.8
	h2.8v5.7h-47v-5.7h2c5.4,0,9-0.9,10.8-2.5c1.8-1.7,2.6-5.7,2.6-12v-76.8c0-6.7-0.8-10.8-2.5-12.3c-1.6-1.5-5.2-2.3-10.6-2.3h-2.3
	v-5.9H586.2z M499.5,216.2L459.8,326h-4.4L415,217.5v81.2c0,7.3,1.2,12.5,3.6,15.7s6.4,4.9,11.9,5.2l0.1,6.4h-38.3v-6.4
	c5.6-0.4,9.6-2.2,12-5.3c2.4-3.1,3.5-8.3,3.5-15.6v-68.3c0-7.6-0.8-12.1-2.4-13.8s-4.9-2.4-9.8-2.4h-3.3v-5.9h33.8l35,93.8
	l34.4-93.8h35.2v5.9h-3c-5.2,0-8.6,0.9-10.1,2.6s-2.3,6-2.3,12.8v76.3c0,6.1,0.8,10,2.4,11.8s5,2.6,10,2.6h3v5.7h-46.7v-5.7h2.7
	c5.2,0,8.6-0.8,10.2-2.5s2.4-5.6,2.4-11.8L499.5,216.2z M280.6,326v-5.7c3.9-0.2,6.9-1.3,9-3.3s4.1-5.9,6-11.7l31.2-95.6l12.9-4.2
	l34.9,103.4c0.6,2,1.5,4,2.5,5.8c0.8,1.4,1.9,2.7,3.2,3.7c0.9,0.6,2,1.1,3.1,1.3c1.9,0.4,3.8,0.6,5.8,0.6v5.8h-43.5v-5.8h1.1
	c4.6,0,7.8-0.6,9.7-1.7s2.8-3,2.8-5.7c0-0.8-0.2-1.5-0.4-2.2c-0.2-1-0.6-2.2-1-3.5l-7.4-22h-41.3l-5.5,18.2c-0.3,1-0.6,2.1-0.8,3.1
	c-0.2,1.1-0.3,2.3-0.3,3.4c0,3.5,0.9,6.1,2.7,7.8c1.8,1.7,4.6,2.5,8.3,2.5h1.6v5.8L280.6,326z M311.6,277.7h36.1l-17.9-55.8
	L311.6,277.7z"/>
<path class="st1" d="M149.1,401.6l-1-2.4c20-8.3,33.7-14.6,42.9-19.5c13.8-7.3,25.1-16,31.1-30.3c3.4-8,5.2-17.5,5.2-29.1
	c0-0.7,0-1.3,0-2l0,0l-0.4-89.7h2.6l-1.2,2.3c-21.4-11.9-50.2-17.9-79.1-17.9s-57.8,6-79.1,17.9l-1.3-2.3h2.6
	c-0.1,29.9-0.3,59.8-0.4,89.7l0,0c0,0.7,0,1.3,0,2c0,11.6,1.9,21.1,5.2,29.1c6.1,14.3,17.3,22.9,31.1,30.3
	c9.2,4.9,22.8,11.2,42.9,19.5L149.1,401.6l-1-2.4L149.1,401.6l-1,2.3c-20.1-8.3-33.9-14.7-43.3-19.7c-14.2-7.5-26.8-17-33.4-32.8
	c-3.7-8.6-5.7-19-5.7-31c0-0.7,0-1.4,0-2.1l2.6,0h-2.6c0.1-29.9,0.3-59.8,0.4-89.7v-1.5l1.3-0.7c22.5-12.4,52-18.6,81.6-18.6
	s59.2,6.1,81.6,18.6l1.3,0.7v1.5c0.1,29.9,0.3,59.8,0.4,89.7h-2.6h2.6c0,0.7,0,1.4,0,2.1c0,12.1-1.9,22.4-5.6,31.1
	c-6.7,15.8-19.3,25.3-33.4,32.8c-9.4,5-23.2,11.4-43.3,19.7l-1,0.4l-1-0.4L149.1,401.6z"/>
<path class="st0" d="M149.1,401.6c20.1-8.3,33.8-14.6,43.1-19.6c14-7.4,25.9-16.5,32.3-31.5c3.7-8.8,5.6-19.4,5.4-32.1
	c-0.1-29.9-0.2-59.8-0.4-89.7c-43.8-24.3-116.9-24.3-160.8,0l-0.4,89.7c-0.2,12.7,1.7,23.4,5.4,32.1C80,365.5,92,374.6,105.9,382
	C115.3,386.9,128.9,393.2,149.1,401.6"/>
<path class="st1" d="M108.1,235h6.6l-3.2-10.1L108.1,235z M102.5,243.7v-1c0.6,0,1.2-0.2,1.6-0.6c0.5-0.6,0.9-1.3,1.1-2.1l5.6-17.2
	l2.3-0.8l6.3,18.6c0.1,0.4,0.3,0.7,0.5,1.1l0.6,0.7l0.6,0.2c0.3,0.1,0.7,0.1,1,0.1v1h-7.8v-1h0.2c0.6,0,1.2-0.1,1.8-0.3
	c0.3-0.2,0.5-0.6,0.5-1l-0.1-0.4l-0.2-0.6l-1.3-4h-7.4l-1,3.3l-0.1,0.6v0.6c0,0.5,0.1,1,0.5,1.4c0.4,0.3,1,0.5,1.5,0.4h0.3v1
	L102.5,243.7z M142,223.9l-7.2,19.8H134l-7.3-19.6v14.6c-0.1,1,0.1,2,0.7,2.8c0.5,0.6,1.3,1,2.2,1v1.1h-6.9v-1.1
	c0.8,0,1.6-0.4,2.2-1c0.5-0.8,0.7-1.8,0.6-2.8v-12.3c0.1-0.9,0-1.7-0.4-2.5c-0.5-0.4-1.2-0.5-1.8-0.4h-0.6v-1.1h6.1l6.3,16.9
	l6.2-16.9h6.4v1.1h-0.5c-0.6-0.1-1.3,0.1-1.8,0.5c-0.4,0.7-0.5,1.5-0.4,2.3V240c-0.1,0.7,0.1,1.5,0.4,2.1c0.5,0.4,1.2,0.6,1.8,0.5
	h0.5v1h-8.5v-1h0.5c0.6,0.1,1.3-0.1,1.8-0.5c0.4-0.6,0.5-1.4,0.4-2.1L142,223.9z M157.6,222.5v1.1h-0.6c-0.7-0.1-1.3,0.1-1.8,0.5
	c-0.4,0.7-0.5,1.4-0.4,2.2v13.7c-0.1,0.8,0.1,1.6,0.5,2.2c0.5,0.4,1.2,0.6,1.9,0.5h0.5v1h-8.5v-1h0.4c0.7,0.1,1.4-0.1,1.9-0.4
	c0.4-0.6,0.6-1.4,0.5-2.2v-13.9c0-1.2-0.1-1.9-0.4-2.2c-0.6-0.4-1.2-0.5-1.9-0.4h-0.4v-1.1H157.6z M176.1,222.5l1.8,5.1l-0.9,0.4
	c-1-1.4-2.1-2.6-3.5-3.7c-0.8-0.5-1.7-0.8-2.7-0.8c-0.3,0-0.7,0.1-0.9,0.2c-0.2,0.2-0.3,0.5-0.3,0.9v15.6c-0.1,0.7,0.1,1.5,0.4,2.1
	c0.5,0.4,1.2,0.6,1.9,0.5h0.5v1h-8.5v-1h0.5c0.6,0.1,1.3-0.1,1.8-0.5c0.4-0.6,0.5-1.3,0.5-2.1v-15.6c0-0.3-0.1-0.6-0.3-0.9
	c-0.3-0.2-0.6-0.3-0.9-0.2c-1,0-1.9,0.3-2.7,0.8c-1.3,1.1-2.5,2.3-3.4,3.7l-0.9-0.4l1.8-5.1H176.1z M185.6,235l-5.1-10.1
	c-0.2-0.4-0.5-0.8-0.9-1.1c-0.5-0.2-1-0.3-1.5-0.3v-1h7.3v1h-0.3c-0.5,0-1,0-1.5,0.2l-0.5,0.5l0.1,0.4l0.4,0.7l4.2,8l3.7-7.3
	l0.3-0.7l0.1-0.6c0-0.4-0.2-0.8-0.6-1c-0.5-0.3-1.1-0.4-1.7-0.3v-1h6.1v1c-1.2,0.2-2.1,1-2.6,2l-0.1,0.3l-4.6,8.8v5.5
	c-0.1,0.7,0.1,1.4,0.4,2c0.5,0.4,1.2,0.6,1.9,0.5h0.5v1h-8.5v-1h0.5c0.6,0.1,1.3-0.1,1.8-0.4c0.4-0.6,0.5-1.3,0.4-2.1L185.6,235z"/>
<path class="st1" d="M109.7,248.4v-0.6h3.7v0.6c-0.4,0-0.8,0.2-1.1,0.5c-0.3,0.4-0.4,0.9-0.3,1.4v4.2c0.1,1.1-0.3,2.3-1,3.2
	c-0.8,0.7-1.9,1.1-3,1c-1.1,0.1-2.2-0.3-3-1c-0.7-0.8-1.1-1.8-1-2.8v-5.3c0.2-0.5-0.1-1.1-0.6-1.3c-0.2-0.1-0.4-0.1-0.6,0h-0.3v-0.5
	h4.5v0.5h-0.2c-0.4,0-0.7,0-1,0.2c-0.2,0.3-0.3,0.7-0.2,1.1v5.5c-0.1,0.8,0.2,1.6,0.7,2.2c0.6,0.5,1.3,0.8,2.1,0.7
	c0.8,0.1,1.6-0.2,2.2-0.8c0.5-0.7,0.8-1.6,0.7-2.5v-4.4c0-0.5-0.1-1-0.3-1.4C110.6,248.6,110.2,248.4,109.7,248.4 M116.4,247.8
	l6.2,8.3v-5.8c0.1-0.5-0.1-1-0.4-1.5c-0.3-0.3-0.8-0.5-1.3-0.4v-0.6h4v0.6c-0.5,0-0.9,0.1-1.3,0.4c-0.3,0.4-0.4,0.9-0.4,1.5v8.4
	h-0.5l-6.7-9v6.3c-0.1,0.5,0.1,1,0.4,1.5c0.3,0.3,0.8,0.5,1.3,0.4v0.6h-4v-0.6c0.5,0,0.9-0.1,1.2-0.4c0.3-0.4,0.4-0.9,0.4-1.5v-7
	l-0.7-0.4c-0.3-0.1-0.7-0.2-1-0.2v-0.5L116.4,247.8z M129.9,247.8v0.5h-0.3c-0.4,0-0.7,0-1,0.2c-0.2,0.3-0.3,0.7-0.2,1.1v6.9
	c0,0.4,0,0.8,0.2,1.1c0.3,0.2,0.6,0.3,1,0.2h0.3v0.5h-4.5V258h0.2c0.3,0,0.7,0,1-0.2c0.2-0.1,0.3-0.5,0.3-1.1v-6.9
	c0-0.6-0.1-1-0.2-1.1c-0.3-0.2-0.7-0.2-1-0.2h-0.2v-0.5L129.9,247.8z M135.3,258.8l-3.2-8.7V250c-0.4-1-0.9-1.5-1.7-1.6v-0.5h4.2
	v0.5c-0.3,0-0.7,0-1,0.1l-0.3,0.4l0.1,0.3l0.1,0.4l2.5,6.8l2.4-6.5l0.1-0.4v-0.3l-0.3-0.6c-0.3-0.1-0.6-0.2-0.9-0.2v-0.5h3.4v0.5
	c-0.3,0-0.6,0.1-0.9,0.3c-0.3,0.3-0.5,0.6-0.6,0.9l-3.4,9.3L135.3,258.8z M141.3,258.5V258h0.3c0.4,0,0.7,0,1-0.2
	c0.2-0.2,0.2-0.5,0.2-1.1v-6.9c0-0.6-0.1-1-0.2-1.1c-0.3-0.2-0.7-0.3-1.1-0.2h-0.2v-0.5h7.9l1.1,2.5l-0.4,0.2
	c-0.5-0.7-1.2-1.3-1.9-1.7c-0.6-0.3-1.3-0.5-2.1-0.5c-0.4,0-0.9,0-1.3,0.2c-0.3,0.3-0.4,0.6-0.3,1v3.1h0.8c0.6,0,1.1-0.1,1.6-0.4
	c0.4-0.3,0.6-0.8,0.7-1.3h0.5v4.2h-0.6c0-0.5-0.3-1-0.7-1.4c-0.5-0.3-1.1-0.5-1.6-0.4h-0.8v3.6c0,0.3,0.1,0.6,0.3,0.8
	c0.3,0.2,0.7,0.2,1,0.2c0.9,0,1.8-0.2,2.6-0.6c0.8-0.4,1.5-1,2-1.8l0.5,0.1l-1.1,2.8L141.3,258.5z M159,258.5l-3-5.2h-1.2v3.4
	c-0.2,0.5,0.2,1.1,0.7,1.2c0.2,0.1,0.4,0.1,0.5,0h0.3v0.5h-4.5V258h0.3c0.4,0,0.7,0,1-0.2c0.2-0.3,0.3-0.7,0.2-1.1v-7
	c0-0.4,0-0.7-0.2-1c-0.3-0.2-0.7-0.3-1-0.2h-0.2v-0.5h4.5c1.1-0.1,2.2,0.2,3.2,0.7c0.7,0.5,1.1,1.3,1.1,2.1c0,0.6-0.3,1.3-0.8,1.7
	c-0.7,0.5-1.5,0.8-2.3,0.9l2.1,3.4c0.2,0.4,0.5,0.8,0.9,1.1c0.3,0.2,0.7,0.3,1.1,0.2h0.1v0.5L159,258.5z M154.8,252.8h1.2
	c0.8,0.1,1.5-0.1,2.2-0.5c0.5-0.4,0.7-1,0.7-1.6c0.1-0.6-0.2-1.3-0.6-1.7c-0.6-0.4-1.3-0.6-2-0.5c-0.4-0.1-0.8,0-1.2,0.2
	c-0.2,0.1-0.3,0.5-0.3,1L154.8,252.8z M163.2,258.7l-1.1-2.8l0.5-0.2c0.6,0.7,1.2,1.3,2,1.8c0.6,0.4,1.3,0.6,2,0.6
	c0.6,0,1.1-0.2,1.5-0.6c0.4-0.4,0.6-0.9,0.6-1.5c0-0.5-0.2-1-0.6-1.4c-0.7-0.5-1.5-0.8-2.3-1l-0.3-0.1c-0.7-0.2-1.4-0.5-2-1l-0.7-1
	c-0.2-0.4-0.2-0.8-0.2-1.1c0-0.8,0.3-1.5,0.9-2c0.6-0.5,1.4-0.8,2.2-0.8c0.4,0,0.8,0.1,1.1,0.2c0.2,0.1,0.5,0.1,0.7,0.2l0.5-0.1
	l0.6-0.2l1.1,2.7l-0.4,0.2c-0.5-0.7-1.1-1.3-1.8-1.9c-0.5-0.4-1.1-0.6-1.8-0.6c-0.5,0-1,0.2-1.4,0.5c-0.4,0.4-0.6,0.8-0.6,1.4
	l0.2,0.8l0.6,0.6c0.7,0.4,1.4,0.7,2.1,0.8l0.6,0.1c0.8,0.2,1.6,0.6,2.2,1.2c0.5,0.6,0.7,1.3,0.7,2c0,0.8-0.3,1.6-0.9,2.2
	c-0.6,0.6-1.4,0.9-2.2,0.9c-0.5,0-1.1-0.1-1.6-0.2c-0.5-0.2-0.8-0.3-0.8-0.3l-0.4,0.1L163.2,258.7z M175.4,247.8v0.5h-0.3
	c-0.4,0-0.7,0-1,0.2c-0.2,0.3-0.3,0.7-0.2,1.1v6.9c0,0.4,0,0.8,0.2,1.1c0.3,0.2,0.6,0.3,1,0.2h0.3v0.5h-4.5V258h0.2
	c0.3,0,0.7,0,1-0.2c0.2-0.1,0.2-0.5,0.2-1.1v-6.9c0-0.6-0.1-1-0.2-1.1c-0.3-0.2-0.7-0.2-1-0.2h-0.2v-0.5L175.4,247.8z M185.3,247.8
	l0.9,2.6l-0.5,0.2c-0.5-0.7-1.1-1.3-1.8-1.9c-0.4-0.3-0.9-0.4-1.4-0.4l-0.5,0.1l-0.1,0.4v7.8c0,0.4,0,0.7,0.2,1
	c0.3,0.2,0.6,0.3,1,0.2h0.3v0.5h-4.5v-0.5h0.3c0.4,0,0.7,0,1-0.2c0.2-0.3,0.3-0.6,0.2-1v-7.8l-0.1-0.4l-0.5-0.1
	c-0.5,0-1,0.1-1.4,0.4c-0.7,0.5-1.3,1.2-1.8,1.9l-0.5-0.2l0.9-2.6L185.3,247.8z M190.3,254.1l-2.7-5l-0.5-0.5l-0.8-0.1v-0.5h3.9v0.5
	h-0.1l-0.8,0.1l-0.2,0.3v0.2l0.2,0.4l2.2,4l2-3.6l0.1-0.3l0.1-0.3l-0.3-0.5c-0.3-0.1-0.6-0.2-0.9-0.2v-0.5h3.3v0.5
	c-0.6,0.1-1.1,0.5-1.4,1l-0.1,0.1l-2.5,4.4v2.8c-0.1,0.5,0.2,1.1,0.7,1.2c0.2,0,0.4,0,0.5,0h0.3v0.5h-4.5V258h0.3c0.3,0,0.7,0,1-0.2
	c0.2-0.3,0.3-0.6,0.2-1L190.3,254.1z"/>
<path class="st2" d="M149.1,394.9c13.5-5.6,27.3-11.5,40.2-18.4s23.7-14.9,29.5-28.5c3.9-9.3,5.1-19.6,4.9-29.6v-0.1l-0.3-49.7
	c-45.3-9.1-120.3-2.4-148.6,37.9l-0.2,11.8v0.1c-0.2,10,1,20.4,4.9,29.6c5.8,13.6,16.8,21.8,29.5,28.5
	C121.8,383.4,135.6,389.3,149.1,394.9"/>
<path class="st0" d="M137.1,358.1c8,16.3,41.9,10.1,38.1-12.5c2.7,0.9,4.2,3.5,4.6,7.3c0.4,4.4-0.8,8.6-1.3,12.9
	c-0.8,7-0.7,14.1,0.3,21c-2.4,1.5-5,2.7-7.8,3.6c-0.8-3.2-1.7-6.6-2.5-9.8c-0.7,0.3-1.4,0.4-2.1,0.5c0.8,3.3,1.7,6.6,2.5,9.9
	c-0.6,0.2-1.3,0.3-1.9,0.5c-1.2-2.9-2.4-6-3.7-8.9c-1,0-2-0.1-3-0.2c1.4,3.1,2.9,6.4,4.3,9.6c-0.9,0.2-1.9,0.3-2.8,0.4
	c-1.7-3.2-3.4-6.6-5.1-9.8c-0.9,0-1.8-0.1-2.7-0.3c1.9,3.3,3.8,6.8,5.7,10.1h0.2c-1.3,0-2.5,0-3.8-0.2l-12.6-17.9
	c7.2,6.4,22.5,6.6,29.4-0.8c2-1.6,0.6-5.2-2.8-2.4c-3,2.4-6.7,3.9-10.5,4.5c-5.9,1.1-12-0.2-17-3.6
	C138.5,369.2,135.5,364.6,137.1,358.1 M145.8,369.8l0.4,0.6l-0.6,0.4l-0.4-0.6L145.8,369.8z M148.4,370.2c0.5,0.2,0.8,0.7,0.7,1.2
	c-0.2,0.5-0.7,0.8-1.2,0.7c-0.5-0.2-0.8-0.7-0.7-1.2C147.3,370.4,147.8,370.1,148.4,370.2C148.4,370.2,148.4,370.2,148.4,370.2
	 M150.7,370.9c-0.2,0.5,0,1.1,0.4,1.5c0.6,0.4,1.3,0.5,2,0.4c7.2,0.2,13.1-2,17.8-6.6c0.7-0.7,0.6-1.7-0.1-1.6
	c-5.3,3.8-11.3,5.9-17.6,5.5C152.4,370.1,151,369.9,150.7,370.9"/>
<path class="st1" d="M172.6,316.2c-7.7,3.6-10,14.7-9.5,22.6c0.2,3,0.5,6.1-0.7,9c-3.7,8.2-16.4,3.2-13.6-8.2
	c2.8-11.6,8.6-22,8.6-35.7c0-11.3-4.5-21.3-13.6-30.4c2.8,9.9-1.9,15.1-7.3,21.1c-3,3.3-5.9,6.5-7.3,10.7c-2.2,6.2-1,13,3,18.1
	c-0.6-3.4-0.6-6.8,0-10.1c1.9-9,13.6-13.1,16.4-21c3,5,2.1,12.2-0.6,18.9c-4.9,10.4-15,24.5-12.4,36.5c1.6,7.3,5.2,12.5,12,15.2
	c8.4,3.4,18.8,0,22.8-8.3c2-4.1,2.1-8.7,0.8-13.7C166.7,325.5,169.5,320.7,172.6,316.2"/>
<path class="st3" d="M172.2,315.7L172.2,315.7l0.7,0.9c-1.8,2.3-3,5.1-3.4,8c-0.5,3.6-0.1,8.6,2.1,16.1l0,0c0.7,2.4,0.9,4.9,0.8,7.4
	c-0.1,2.3-0.7,4.6-1.7,6.7c-3.1,6-9.2,9.9-16,10c-1.3,0-2.6,0-3.8-0.3c-1.3-0.2-2.5-0.6-3.7-1.1l0,0c-3.2-1.3-6-3.4-8.2-6.1
	c-2.1-2.8-3.5-6.1-4.2-9.6c-2.1-9.7,3.8-20.5,8.8-29.8c1.3-2.5,2.6-4.9,3.7-7.1c1.9-4.8,2.9-9.7,2.2-13.9c-0.1-0.8-0.3-1.6-0.6-2.3
	l-0.4-1.1c-1.6,3.2-4.5,5.8-7.4,8.4c-3.7,3.3-7.5,6.7-8.5,11.4c-0.3,1.6-0.5,3.1-0.4,4.7c0,1.7,0.1,3.5,0.4,5.2l-1.1,0.4
	c-3-3.8-4.5-8.6-4.2-13.5c0.1-0.9,0.2-1.8,0.3-2.6c0.2-0.9,0.4-1.7,0.7-2.6l0,0c1.4-4.3,4.3-7.5,7.2-10.7l0.2-0.3l0,0
	c5.3-5.8,9.9-10.9,7.2-20.5l1-0.6c4.3,4.2,7.9,9.1,10.4,14.6c2.3,5.1,3.5,10.6,3.4,16.2c0,9.2-2.6,16.9-5.2,24.5
	c-1.2,3.8-2.5,7.5-3.4,11.3c-1,4,0.1,7.2,1.9,9.2c0.8,0.8,1.7,1.5,2.8,1.9c1,0.4,2.1,0.5,3.1,0.4c2.1-0.3,3.9-1.7,4.6-3.7
	c1.1-2.5,0.9-5.3,0.7-8v-0.7c-0.4-5.8,0.7-13.2,4.3-18.4c0.7-1,1.5-1.9,2.4-2.7c0.9-0.8,2-1.5,3.1-2 M170.6,318l-0.7,0.6
	c-0.8,0.7-1.6,1.6-2.2,2.5c-3.4,4.9-4.4,12.1-4,17.6v0.7c0.2,2.9,0.4,5.8-0.8,8.6c-0.9,2.4-3.1,4-5.6,4.4c-1.2,0.1-2.5,0-3.7-0.5
	c-1.2-0.5-2.3-1.2-3.2-2.2c-2.1-2.3-3.3-5.8-2.2-10.3c0.9-3.9,2.2-7.6,3.5-11.4c2.5-7.5,5.1-15.1,5.1-24.1c0-5.4-1.1-10.8-3.3-15.8
	c-2.2-4.7-5.1-8.9-8.6-12.6c1.7,8.8-2.8,13.8-7.9,19.5l0,0l-0.2,0.3c-2.8,3.1-5.6,6.2-7,10.2l0,0l0,0c-0.3,0.8-0.5,1.6-0.6,2.4
	c-0.2,0.8-0.3,1.6-0.3,2.5c-0.3,3.8,0.6,7.6,2.6,10.8c-0.1-1-0.1-2-0.1-3c0-1.7,0.1-3.4,0.5-5c1-5.1,5-8.6,8.9-12
	c3.2-2.8,6.3-5.6,7.6-9.1l0.4-1.1l0.7,1l0,0l0,0c0.4,0.7,0.8,1.5,1.1,2.3c0.3,0.8,0.5,1.7,0.6,2.5c0.7,4.4-0.3,9.6-2.2,14.5l0,0l0,0
	c-1.1,2.2-2.4,4.6-3.7,7.2c-4.9,9.1-10.6,19.7-8.6,29c0.6,3.3,2,6.4,3.9,9.1c2,2.6,4.7,4.6,7.7,5.7l0,0c1.1,0.5,2.3,0.8,3.5,1
	c1.2,0.2,2.4,0.3,3.6,0.3c6.3-0.1,12.1-3.7,15-9.3l0,0c0.9-2,1.5-4.1,1.6-6.3c0.1-2.4-0.2-4.7-0.8-7c-2.3-7.8-2.7-12.9-2.1-16.6
	C168.8,322,169.5,319.9,170.6,318"/>
</svg>
